<?xml version="1.0" encoding="iso-8859-1"?>
<!-- Generator: Adobe Illustrator 23.1.0, SVG Export Plug-In . SVG Version: 6.00 Build 0)  -->
<svg version="1.1" id="Layer_1" xmlns="http://www.w3.org/2000/svg" xmlns:xlink="http://www.w3.org/1999/xlink" x="0px" y="0px"
	 viewBox="0 0 48 48" style="enable-background:new 0 0 48 48;" xml:space="preserve">
<polygon style="fill:#999999;" points="27.664,17.094 27.18,15.272 26.314,14.407 26.668,14.054 27.629,15.015 28.146,16.965 "/>
<path style="fill:#535352;" d="M25.013,15.492L25.013,15.492c-0.255-0.255-0.255-0.668,0-0.923l1.846-1.846
	c0.255-0.255,0.668-0.255,0.923,0l0,0c0.255,0.255,0.255,0.668,0,0.923l-1.846,1.846C25.682,15.747,25.268,15.747,25.013,15.492z"/>
<polygon style="fill:#999999;" points="34.039,22.132 33.173,21.266 31.353,20.781 31.481,20.299 33.431,20.816 34.393,21.778 "/>
<path style="fill:#535352;" d="M32.954,23.433L32.954,23.433c0.255,0.255,0.668,0.255,0.923,0l1.846-1.846
	c0.255-0.255,0.255-0.668,0-0.923l0,0c-0.255-0.255-0.668-0.255-0.923,0l-1.846,1.846C32.699,22.764,32.699,23.178,32.954,23.433z"
	/>
<linearGradient id="SVGID_1_" gradientUnits="userSpaceOnUse" x1="42" y1="40.4142" x2="50" y2="40.4142" gradientTransform="matrix(-0.7071 -0.7071 -0.7071 0.7071 76.6795 42.5312)">
	<stop  offset="0" style="stop-color:#89C535"/>
	<stop  offset="1" style="stop-color:#328748"/>
</linearGradient>
<path style="fill:url(#SVGID_1_);" d="M10.626,37.874l4.939,4.939c0.397,0.397,1.04,0.397,1.436,0l2.183-2.183
	c0.362-0.362,0.398-0.937,0.084-1.342l-4.399-5.656L10.626,37.874z"/>
<polygon style="fill:#388B47;" points="15.001,42.25 15.929,41.322 14.15,39.543 13.222,40.471 12.868,40.117 13.797,39.189 
	11.841,37.234 12.195,36.88 16.614,41.299 16.57,41.344 16.592,41.366 15.354,42.603 "/>
<linearGradient id="SVGID_2_" gradientUnits="userSpaceOnUse" x1="28" y1="24.4142" x2="50" y2="24.4142" gradientTransform="matrix(-0.7071 -0.7071 -0.7071 0.7071 76.6795 42.5312)">
	<stop  offset="0" style="stop-color:#89C535"/>
	<stop  offset="1" style="stop-color:#328748"/>
</linearGradient>
<path style="fill:url(#SVGID_2_);" d="M37.361,40.77L20.525,27.975l7.071-7.071l14.7,14.7c0.473,0.473,0.473,1.24,0,1.712
	l-3.346,3.346C38.522,41.091,37.843,41.137,37.361,40.77z"/>
<polygon style="fill:#388B47;" points="30.77,35.761 30.368,35.456 32.22,33.604 24.6,26.746 24.936,26.375 39.078,39.103 
	38.742,39.474 32.592,33.939 "/>
<linearGradient id="SVGID_3_" gradientUnits="userSpaceOnUse" x1="29" y1="18.9881" x2="29" y2="25.6645" gradientTransform="matrix(-0.7071 -0.7071 -0.7071 0.7071 76.6795 42.5312)">
	<stop  offset="0" style="stop-color:#FDD835"/>
	<stop  offset="1" style="stop-color:#F9A825"/>
</linearGradient>
<path style="fill:url(#SVGID_3_);" d="M41.738,35.046l0.558,0.558c0.473,0.473,0.473,1.24,0,1.712l-3.346,3.346
	c-0.428,0.428-1.107,0.474-1.589,0.108l-0.766-0.582L41.738,35.046z"/>
<linearGradient id="SVGID_4_" gradientUnits="userSpaceOnUse" x1="16" y1="40.4142" x2="30.0116" y2="40.4142" gradientTransform="matrix(0.7071 0.7071 -0.7071 0.7071 24.3536 -9.7947)">
	<stop  offset="0" style="stop-color:#89C535"/>
	<stop  offset="1" style="stop-color:#328748"/>
</linearGradient>
<path style="fill:url(#SVGID_4_);" d="M10.626,37.874l-4.939-4.939c-0.397-0.397-0.397-1.04,0-1.436l2.183-2.183
	c0.362-0.362,0.937-0.398,1.342-0.084l5.656,4.399L10.626,37.874z"/>
<linearGradient id="SVGID_5_" gradientUnits="userSpaceOnUse" x1="7.5685" y1="24.4142" x2="29.5685" y2="24.4142" gradientTransform="matrix(0.7071 0.7071 -0.7071 0.7071 24.3536 -9.7947)">
	<stop  offset="0" style="stop-color:#89C535"/>
	<stop  offset="1" style="stop-color:#328748"/>
</linearGradient>
<path style="fill:url(#SVGID_5_);" d="M7.73,11.139l12.795,16.836l7.071-7.071l-14.7-14.7c-0.473-0.473-1.24-0.473-1.712,0
	L7.837,9.55C7.409,9.978,7.363,10.657,7.73,11.139z"/>
<polygon style="fill:#388B47;" points="6.25,33.499 7.178,32.571 8.957,34.35 8.029,35.278 8.383,35.632 9.311,34.703 
	11.266,36.659 11.62,36.305 7.201,31.886 7.156,31.93 7.134,31.908 5.897,33.146 "/>
<polygon style="fill:#388B47;" points="12.739,17.73 13.044,18.132 14.896,16.28 21.754,23.9 22.125,23.564 9.397,9.422 
	9.026,9.758 14.561,15.908 "/>
<linearGradient id="SVGID_6_" gradientUnits="userSpaceOnUse" x1="3" y1="18.9881" x2="3" y2="25.6645" gradientTransform="matrix(0.7071 0.7071 -0.7071 0.7071 24.3536 -9.7947)">
	<stop  offset="0" style="stop-color:#FDD835"/>
	<stop  offset="1" style="stop-color:#F9A825"/>
</linearGradient>
<path style="fill:url(#SVGID_6_);" d="M13.454,6.762l-0.558-0.558c-0.473-0.473-1.24-0.473-1.712,0L7.837,9.55
	c-0.428,0.428-0.474,1.107-0.108,1.589l0.582,0.766L13.454,6.762z"/>
<linearGradient id="SVGID_7_" gradientUnits="userSpaceOnUse" x1="19.184" y1="26.9142" x2="27.448" y2="26.9142" gradientTransform="matrix(0.7071 0.7071 -0.7071 0.7071 24.3536 -9.7947)">
	<stop  offset="0" style="stop-color:#999999"/>
	<stop  offset="0.0674" style="stop-color:#A6A6A6"/>
	<stop  offset="0.2468" style="stop-color:#C5C5C5"/>
	<stop  offset="0.3999" style="stop-color:#D7D7D7"/>
	<stop  offset="0.5078" style="stop-color:#DEDEDE"/>
	<stop  offset="1" style="stop-color:#9B9B9B"/>
</linearGradient>
<path style="fill:url(#SVGID_7_);" d="M35.486,17.014c0.248-0.285,0.233-0.714-0.034-0.981L33.96,14.54l-1.492-1.492
	c-0.267-0.267-0.697-0.282-0.981-0.034c-4.18,3.643-8.172,7.353-11.668,11.425c-2.63,3.116-6.762,8.795-9.192,13.435
	c4.64-2.431,10.319-6.563,13.435-9.192C28.133,25.186,31.843,21.193,35.486,17.014z"/>
<linearGradient id="SVGID_8_" gradientUnits="userSpaceOnUse" x1="24" y1="17.8309" x2="24" y2="16.3303" gradientTransform="matrix(0.7071 0.7071 -0.7071 0.7071 24.3536 -9.7947)">
	<stop  offset="0" style="stop-color:#315B8E"/>
	<stop  offset="1" style="stop-color:#5BA5EA"/>
</linearGradient>
<path style="fill:url(#SVGID_8_);" d="M29.718,18.782c-0.586-0.586-1.779-0.895-2.574-0.718l-0.254,0.718
	c0.773,0,1.58,0.166,2.121,0.707c0.541,0.541,0.707,1.348,0.707,2.121l0.718-0.254C30.612,20.561,30.303,19.368,29.718,18.782z"/>
<path style="fill:#535352;" d="M34.292,14.208c-1.4-1.416-2.718-2.927-3.955-4.53l0.088-0.088l4.243,4.243L34.292,14.208z"/>
<linearGradient id="SVGID_9_" gradientUnits="userSpaceOnUse" x1="18.6287" y1="11.4142" x2="25.1287" y2="11.4142" gradientTransform="matrix(0.7071 0.7071 -0.7071 0.7071 24.3536 -9.7947)">
	<stop  offset="0" style="stop-color:#89C535"/>
	<stop  offset="1" style="stop-color:#328748"/>
</linearGradient>
<path style="fill:url(#SVGID_9_);" d="M35.717,17.244c0.246-0.287,0.206-0.742-0.092-1.04L33.96,14.54l-1.665-1.665
	c-0.298-0.298-0.753-0.338-1.04-0.092c-0.338,0.29-0.672,0.582-1.008,0.873l2.298,2.298l2.298,2.298
	C35.135,17.917,35.427,17.582,35.717,17.244z"/>
<path style="fill:#317731;" d="M9.561,38.561l0.401,0.401l5.243-4.806c0.839-0.777-0.077-1.673-0.837-0.837L9.561,38.561z"/>
<path style="fill:#535352;" d="M34.292,14.208c1.416,1.4,2.927,2.718,4.53,3.955l0.088-0.088l-4.243-4.243L34.292,14.208z"/>
<linearGradient id="SVGID_10_" gradientUnits="userSpaceOnUse" x1="23" y1="9.4142" x2="25" y2="9.4142" gradientTransform="matrix(0.7071 0.7071 -0.7071 0.7071 24.3536 -9.7947)">
	<stop  offset="0" style="stop-color:#F68381"/>
	<stop  offset="1" style="stop-color:#E51E25"/>
</linearGradient>
<path style="fill:url(#SVGID_10_);" d="M35.374,13.126c-1.149-0.243-1.724,0.309-2.121,0.707l0.707,0.707l0.707,0.707
	C35.065,14.849,35.617,14.275,35.374,13.126z"/>
<polygon style="fill:#388B47;" points="8.617,12.306 13.808,7.115 13.454,6.762 8.311,11.904 "/>
<polygon style="fill:#388B47;" points="36.188,39.878 41.379,34.687 41.733,35.04 36.59,40.183 "/>
</svg>